<?xml version="1.0" encoding="UTF-8"?>
<!DOCTYPE svg PUBLIC "-//W3C//DTD SVG 1.1//EN" "http://www.w3.org/Graphics/SVG/1.1/DTD/svg11.dtd">
<svg xmlns="http://www.w3.org/2000/svg" version="1.1" width="338px" height="149px" style="shape-rendering:geometricPrecision; text-rendering:geometricPrecision; image-rendering:optimizeQuality; fill-rule:evenodd; clip-rule:evenodd" xmlns:xlink="http://www.w3.org/1999/xlink">
<g><path style="opacity:1" fill="#fefdfe" d="M -0.5,-0.5 C 112.167,-0.5 224.833,-0.5 337.5,-0.5C 337.5,49.1667 337.5,98.8333 337.5,148.5C 224.833,148.5 112.167,148.5 -0.5,148.5C -0.5,98.8333 -0.5,49.1667 -0.5,-0.5 Z"/></g>
<g><path style="opacity:1" fill="#f16677" d="M 138.5,1.5 C 149.659,0.340746 160.992,0.17408 172.5,1C 166.485,1.42416 160.485,1.92416 154.5,2.5C 149.36,1.51192 144.026,1.17859 138.5,1.5 Z"/></g>
<g><path style="opacity:1" fill="#ec1d3e" d="M 138.5,1.5 C 144.026,1.17859 149.36,1.51192 154.5,2.5C 124.809,4.71435 96.3095,11.7144 69,23.5C 68.0628,20.344 66.5628,17.5106 64.5,15C 88.4769,6.83832 113.144,2.33832 138.5,1.5 Z"/></g>
<g><path style="opacity:1" fill="#0965b3" d="M 51.5,14.5 C 62.1267,14.4471 65.9601,19.4471 63,29.5C 59.6923,33.3271 55.5256,34.4937 50.5,33C 45.8451,30.1034 44.3451,25.9367 46,20.5C 47.3597,17.9774 49.193,15.9774 51.5,14.5 Z"/></g>
<g><path style="opacity:1" fill="#ec1d40" d="M 327.5,106.5 C 311.568,118.466 293.902,127.299 274.5,133C 207.694,151.514 140.694,152.181 73.5,135C 53.3821,129.44 35.0487,120.44 18.5,108C -2.41678,89.3633 -4.58345,68.8633 12,46.5C 20.5895,37.7098 30.2561,30.3765 41,24.5C 41.6513,28.6366 43.4847,32.1366 46.5,35C 34.4785,42.0188 25.6452,51.8521 20,64.5C 18.4353,74.8064 20.7687,84.1397 27,92.5C 35.5554,102.368 45.722,110.202 57.5,116C 86.5405,128.343 116.874,135.343 148.5,137C 190.249,139.35 231.582,136.35 272.5,128C 292.001,123.574 310.334,116.407 327.5,106.5 Z"/></g>
<g><path style="opacity:1" fill="#1c69b4" d="M 119.5,29.5 C 122.85,29.335 126.183,29.5017 129.5,30C 130.91,30.3678 131.91,31.2011 132.5,32.5C 131.764,34.5405 130.931,36.5405 130,38.5C 127.667,37.1667 125.333,37.1667 123,38.5C 122.501,42.4862 122.334,46.4862 122.5,50.5C 125.167,50.5 127.833,50.5 130.5,50.5C 129.908,53.1272 129.575,55.7938 129.5,58.5C 127.167,58.5 124.833,58.5 122.5,58.5C 122.5,71.8333 122.5,85.1667 122.5,98.5C 119.167,98.5 115.833,98.5 112.5,98.5C 112.5,85.1667 112.5,71.8333 112.5,58.5C 111.5,58.5 110.5,58.5 109.5,58.5C 109.5,55.8333 109.5,53.1667 109.5,50.5C 110.5,50.5 111.5,50.5 112.5,50.5C 111.962,44.5982 112.795,38.9315 115,33.5C 116.397,31.9297 117.897,30.5964 119.5,29.5 Z"/></g>
<g><path style="opacity:1" fill="#1066b3" d="M 140.5,31.5 C 146.765,31.3634 149.265,34.3634 148,40.5C 144.333,44.5 140.667,44.5 137,40.5C 135.98,36.5532 137.147,33.5532 140.5,31.5 Z"/></g>
<g><path style="opacity:1" fill="#0363b2" d="M 50.5,41.5 C 53.5,41.5 56.5,41.5 59.5,41.5C 59.5,60.5 59.5,79.5 59.5,98.5C 56.5,98.5 53.5,98.5 50.5,98.5C 50.5,79.5 50.5,60.5 50.5,41.5 Z"/></g>
<g><path style="opacity:1" fill="#1467b3" d="M 80.5,62.5 C 79.5051,73.988 79.1717,85.6547 79.5,97.5C 76.8333,97.5 74.1667,97.5 71.5,97.5C 71.8288,84.3226 71.4955,71.3226 70.5,58.5C 70.7564,56.2075 70.4231,54.0408 69.5,52C 72.1724,51.1656 74.839,50.3323 77.5,49.5C 78.8064,50.9122 79.6397,52.5789 80,54.5C 86.3751,47.8447 92.7084,47.8447 99,54.5C 99.4999,69.1629 99.6666,83.8295 99.5,98.5C 96.5,98.5 93.5,98.5 90.5,98.5C 90.6666,85.8289 90.4999,73.1623 90,60.5C 86.2119,57.7359 83.0452,58.4026 80.5,62.5 Z"/></g>
<g><path style="opacity:1" fill="#5c8dc4" d="M 143.5,50.5 C 144.568,49.5655 145.901,49.2322 147.5,49.5C 147.5,65.8333 147.5,82.1667 147.5,98.5C 144.167,98.5 140.833,98.5 137.5,98.5C 137.17,82.3246 137.504,66.3246 138.5,50.5C 138.5,66.1667 138.5,81.8333 138.5,97.5C 141.167,97.5 143.833,97.5 146.5,97.5C 146.5,81.8333 146.5,66.1667 146.5,50.5C 145.5,50.5 144.5,50.5 143.5,50.5 Z"/></g>
<g><path style="opacity:1" fill="#0a66b3" d="M 164.5,49.5 C 166.614,50.3602 167.78,52.0268 168,54.5C 173.261,49.3899 179.094,48.5565 185.5,52C 186.46,53.4194 187.293,54.9194 188,56.5C 188.5,70.496 188.667,84.496 188.5,98.5C 185.5,98.5 182.5,98.5 179.5,98.5C 179.667,86.1622 179.5,73.8288 179,61.5C 178.521,59.354 177.188,58.354 175,58.5C 172.497,58.99 170.497,60.3234 169,62.5C 168.5,74.4954 168.333,86.4954 168.5,98.5C 165.5,98.5 162.5,98.5 159.5,98.5C 159.793,83.6414 159.46,68.808 158.5,54C 158.585,52.8926 158.919,51.8926 159.5,51C 161.382,50.8019 163.048,50.3019 164.5,49.5 Z"/></g>
<g><path style="opacity:1" fill="#1166b3" d="M 228.5,76.5 C 221.167,76.5 213.833,76.5 206.5,76.5C 206.205,78.7354 206.539,80.7354 207.5,82.5C 208.5,89.6521 212.5,92.1521 219.5,90C 221.09,88.9542 222.59,87.7875 224,86.5C 225.366,88.3703 226.533,90.3703 227.5,92.5C 221.382,99.8295 214.048,101.33 205.5,97C 199.471,90.5741 196.804,82.9074 197.5,74C 197.092,67.0359 198.592,60.5359 202,54.5C 209.333,47.8333 216.667,47.8333 224,54.5C 227.904,61.3147 229.404,68.648 228.5,76.5 Z"/></g>
<g><path style="opacity:1" fill="#0e66b3" d="M 245.5,49.5 C 256.12,47.8922 262.954,52.2255 266,62.5C 268.422,72.8607 267.422,82.8607 263,92.5C 257.483,99.5859 250.649,101.086 242.5,97C 237.876,92.1443 235.376,86.3109 235,79.5C 233.599,71.0306 234.932,63.0306 239,55.5C 241.063,53.2659 243.229,51.2659 245.5,49.5 Z"/></g>
<g><path style="opacity:1" fill="#0465b2" d="M 303.5,56.5 C 303.5,70.1667 303.5,83.8333 303.5,97.5C 300.833,97.5 298.167,97.5 295.5,97.5C 295.667,85.4954 295.5,73.4954 295,61.5C 294.521,59.354 293.188,58.354 291,58.5C 288.413,59.2073 286.246,60.5406 284.5,62.5C 283.505,73.988 283.172,85.6547 283.5,97.5C 280.833,97.5 278.167,97.5 275.5,97.5C 275.829,83.9895 275.496,70.6562 274.5,57.5C 274.338,55.4727 274.505,53.4727 275,51.5C 277.124,50.7728 279.291,50.1062 281.5,49.5C 283.069,50.714 283.902,52.3807 284,54.5C 289.135,48.9501 294.969,48.1167 301.5,52C 302.582,53.3297 303.249,54.8297 303.5,56.5 Z"/></g>
<g><path style="opacity:1" fill="#0065b2" d="M 138.5,50.5 C 140.167,50.5 141.833,50.5 143.5,50.5C 144.5,50.5 145.5,50.5 146.5,50.5C 146.5,66.1667 146.5,81.8333 146.5,97.5C 143.833,97.5 141.167,97.5 138.5,97.5C 138.5,81.8333 138.5,66.1667 138.5,50.5 Z"/></g>
<g><path style="opacity:1" fill="#f7f9fc" d="M 211.5,56.5 C 213.582,56.472 215.416,57.1387 217,58.5C 218.337,62.0257 218.837,65.6924 218.5,69.5C 214.833,69.5 211.167,69.5 207.5,69.5C 206.535,64.3172 207.868,59.9839 211.5,56.5 Z"/></g>
<g><path style="opacity:1" fill="#f6f8fb" d="M 248.5,57.5 C 253.712,57.5622 256.546,60.2289 257,65.5C 258.088,73.348 257.421,81.0147 255,88.5C 252.842,91.9499 250.342,92.2833 247.5,89.5C 246.194,88.0878 245.36,86.4211 245,84.5C 244.333,77.5 244.333,70.5 245,63.5C 245.926,61.3083 247.093,59.3083 248.5,57.5 Z"/></g>
<g><path style="opacity:1" fill="#578ac3" d="M 303.5,56.5 C 304.496,70.3234 304.829,84.3234 304.5,98.5C 301.287,98.81 298.287,98.4767 295.5,97.5C 298.167,97.5 300.833,97.5 303.5,97.5C 303.5,83.8333 303.5,70.1667 303.5,56.5 Z"/></g>
<g><path style="opacity:1" fill="#89a9d1" d="M 70.5,58.5 C 71.4955,71.3226 71.8288,84.3226 71.5,97.5C 74.1667,97.5 76.8333,97.5 79.5,97.5C 79.1717,85.6547 79.5051,73.988 80.5,62.5C 80.5,74.5 80.5,86.5 80.5,98.5C 77.1667,98.5 73.8333,98.5 70.5,98.5C 70.5,85.1667 70.5,71.8333 70.5,58.5 Z"/></g>
<g><path style="opacity:1" fill="#739bcb" d="M 274.5,57.5 C 275.496,70.6562 275.829,83.9895 275.5,97.5C 278.167,97.5 280.833,97.5 283.5,97.5C 283.172,85.6547 283.505,73.988 284.5,62.5C 284.5,74.5 284.5,86.5 284.5,98.5C 281.167,98.5 277.833,98.5 274.5,98.5C 274.5,84.8333 274.5,71.1667 274.5,57.5 Z"/></g>
<g><path style="opacity:1" fill="#a0bada" d="M 228.5,76.5 C 221.687,77.4912 214.687,77.8245 207.5,77.5C 207.5,79.1667 207.5,80.8333 207.5,82.5C 206.539,80.7354 206.205,78.7354 206.5,76.5C 213.833,76.5 221.167,76.5 228.5,76.5 Z"/></g>
<g><path style="opacity:1" fill="#f58089" d="M 330.5,104.5 C 331.879,101.927 333.879,100.427 336.5,100C 334.886,102.127 332.886,103.627 330.5,104.5 Z"/></g>
<g><path style="opacity:1" fill="#f05460" d="M 330.5,104.5 C 330.027,105.906 329.027,106.573 327.5,106.5C 327.973,105.094 328.973,104.427 330.5,104.5 Z"/></g>
</svg>
